<?xml version="1.0" standalone="no"?>
<!DOCTYPE svg PUBLIC "-//W3C//DTD SVG 20010904//EN"
 "http://www.w3.org/TR/2001/REC-SVG-20010904/DTD/svg10.dtd">
<svg version="1.0" xmlns="http://www.w3.org/2000/svg"
 width="500.000000pt" height="300.000000pt" viewBox="0 0 500.000000 300.000000"
 preserveAspectRatio="xMidYMid meet">
<metadata>
Created by potrace 1.16, written by Peter Selinger 2001-2019
</metadata>
<g transform="translate(0.000000,300.000000) scale(0.100000,-0.100000)"
fill="#000000" stroke="none">
<path d="M1354 2034 c3 -8 6 -18 6 -20 0 -2 5 -4 11 -4 5 0 8 4 4 9 -8 15 14
24 29 12 7 -6 17 -7 21 -3 5 4 4 0 0 -8 -7 -13 -6 -13 7 -2 13 10 17 10 21 -2
7 -18 -28 -52 -38 -36 -3 6 -3 10 2 9 23 -4 23 3 0 21 -34 27 -45 25 -21 -2
15 -19 16 -20 2 -9 -10 7 -18 10 -18 6 0 -11 43 -44 58 -45 7 0 11 -4 7 -9 -3
-5 -1 -12 4 -15 5 -4 13 -1 17 5 5 8 3 9 -6 4 -9 -5 -11 -4 -6 4 4 6 11 9 16
6 12 -7 20 21 9 34 -6 8 -5 8 3 1 15 -12 18 -49 4 -47 -6 1 -9 -5 -7 -13 8
-34 5 -45 -14 -45 -11 0 -25 3 -31 8 -7 4 -14 1 -17 -7 -3 -8 1 -17 9 -20 11
-4 12 -10 4 -25 -13 -25 -13 -34 0 -26 6 4 9 1 8 -6 -2 -7 2 -13 9 -14 7 0 23
-9 35 -20 27 -23 54 -29 64 -13 4 7 3 8 -4 4 -8 -4 -10 -2 -6 8 3 9 12 12 21
9 9 -4 14 -2 10 3 -3 6 9 10 28 10 30 0 32 -2 23 -20 -9 -16 -8 -18 7 -12 10
3 24 1 31 -5 8 -6 14 -8 14 -4 0 4 7 2 15 -5 8 -7 15 -9 15 -5 0 5 16 -8 35
-28 19 -20 35 -43 35 -51 0 -8 9 -20 20 -26 16 -9 20 -8 20 5 0 8 -6 14 -12
13 -7 -2 -12 3 -10 10 1 6 -3 12 -9 12 -6 0 -7 5 -2 13 13 20 12 36 -3 48 -15
12 -9 33 7 24 35 -22 -40 96 -77 120 -25 16 -25 16 -13 -7 11 -20 10 -21 -2
-11 -12 10 -39 17 -81 22 -4 1 -6 16 -5 35 1 23 6 32 15 28 10 -4 11 -7 2 -12
-8 -5 -9 -10 -2 -14 6 -3 14 -1 18 5 11 18 -27 40 -59 35 -24 -4 -27 -2 -21
16 5 18 4 19 -9 7 -8 -8 -13 -17 -10 -21 8 -14 -4 -8 -17 8 -11 12 -11 15 0
12 7 -2 15 3 18 11 3 10 -1 13 -17 8 -11 -3 -24 0 -28 5 -4 7 -1 8 7 3 9 -5
11 -4 6 4 -6 9 -11 9 -24 -1 -12 -10 -14 -10 -8 0 4 6 4 13 -1 13 -14 2 -46 7
-87 13 -32 5 -37 4 -32 -10z"/>
<path d="M1096 2003 c-4 -5 -12 -8 -17 -8 -14 0 -11 -20 4 -20 6 -1 11 -6 9
-13 -1 -9 6 -10 23 -6 16 4 25 2 25 -6 0 -6 -5 -8 -11 -4 -8 4 -8 1 -1 -13 16
-29 40 -46 53 -37 8 4 9 3 5 -4 -4 -7 -2 -12 4 -12 6 0 8 -4 5 -10 -3 -5 -2
-10 4 -10 6 0 20 -10 31 -22 12 -13 21 -18 20 -13 -5 25 1 26 19 4 10 -13 20
-33 22 -43 2 -11 8 -18 13 -17 5 2 13 -4 18 -13 5 -9 24 -23 41 -31 18 -9 23
-13 13 -10 -16 5 -17 3 -6 -10 15 -18 27 -10 32 20 2 15 -2 20 -19 19 -21 -1
-21 0 -5 21 9 13 20 19 23 13 3 -5 10 -8 15 -7 5 1 12 0 17 -1 8 -3 23 -7 33
-9 4 0 1 -8 -6 -16 -10 -12 -10 -15 0 -15 8 0 10 -3 7 -6 -4 -4 -14 -1 -24 7
-15 12 -16 12 -10 -5 6 -16 5 -17 -8 -6 -12 10 -15 10 -15 -3 0 -8 5 -17 12
-19 6 -2 13 -13 14 -24 3 -16 0 -16 -17 6 -12 14 -19 18 -16 8 7 -22 -3 -30
-20 -16 -11 8 -12 7 -7 -6 3 -9 1 -16 -5 -16 -6 0 -10 3 -10 8 3 18 -2 22 -21
12 -16 -8 -18 -8 -14 4 3 8 14 13 25 11 11 -2 17 0 14 6 -4 5 -11 9 -17 9 -6
0 -16 7 -23 16 -10 15 -12 14 -10 -7 1 -13 -3 -27 -9 -31 -6 -4 -11 -12 -11
-18 0 -5 -3 -10 -7 -10 -5 0 -11 0 -14 0 -4 0 0 7 7 16 13 15 23 54 15 54 -3
0 -16 -4 -30 -10 -17 -6 -27 -6 -32 2 -4 6 -3 8 3 5 6 -4 10 6 11 24 1 24 -7
35 -38 55 -21 14 -44 23 -49 19 -6 -3 -9 0 -6 7 2 7 -7 22 -22 32 -14 11 -23
14 -19 8 4 -8 1 -12 -10 -12 -10 0 -14 3 -11 7 8 7 -11 33 -24 33 -5 0 -9 -7
-9 -16 0 -14 -1 -14 -16 0 -8 9 -20 16 -25 16 -6 0 -7 5 -3 11 4 8 9 8 13 1 4
-7 12 -8 21 -2 9 6 10 10 3 10 -6 0 -19 7 -27 16 -9 8 -16 11 -16 6 0 -6 -9
-8 -20 -5 -32 8 -23 -12 18 -42 20 -16 44 -37 53 -48 11 -13 23 -18 34 -13 14
5 15 4 7 -6 -8 -10 -1 -21 28 -46 40 -33 56 -41 44 -19 -5 8 -2 8 9 -2 16 -12
22 -8 18 12 -1 5 3 6 9 2 5 -3 10 0 10 7 0 10 3 9 9 -2 11 -16 4 -33 -9 -25
-5 3 -11 1 -15 -5 -4 -6 -11 -8 -16 -5 -5 4 -9 1 -9 -4 0 -6 10 -11 23 -11 18
0 19 -2 7 -10 -13 -8 -13 -10 1 -10 9 0 19 -7 23 -15 5 -15 28 -22 23 -7 -2 7
6 12 18 12 3 0 1 -9 -5 -20 -9 -18 -6 -23 25 -41 19 -12 35 -25 35 -30 0 -5 4
-9 9 -9 6 0 8 9 6 20 -2 11 -1 22 3 24 4 2 8 -13 8 -35 1 -42 -6 -48 -26 -24
-14 16 -34 10 -24 -7 4 -7 2 -8 -5 -4 -6 4 -9 11 -7 15 3 4 -7 8 -20 9 -17 1
-23 -2 -18 -10 4 -7 3 -8 -4 -4 -17 10 -3 36 16 29 9 -3 0 8 -22 25 -40 33
-52 39 -41 22 3 -5 1 -10 -4 -10 -6 0 -11 6 -11 13 0 15 -40 55 -40 41 -1 -5
-8 0 -18 11 -28 33 -106 82 -124 77 -13 -2 -18 3 -18 18 0 17 -4 21 -20 17
-13 -3 -18 -1 -13 6 4 6 0 8 -10 4 -12 -4 -14 -2 -10 11 6 15 5 16 -12 2 -17
-14 -18 -13 -12 2 4 12 2 15 -8 12 -14 -6 -10 -34 5 -34 5 0 21 -13 36 -30 23
-24 35 -29 61 -26 20 3 31 1 27 -5 -3 -5 -12 -8 -19 -7 -8 2 -13 -1 -12 -7 1
-5 7 -9 14 -7 7 2 12 -1 11 -5 -2 -5 6 -19 18 -31 l21 -23 -2 35 c-1 23 3 32
11 29 6 -2 10 -18 9 -36 -2 -17 3 -40 10 -49 10 -16 14 -16 24 -4 8 10 9 16 1
21 -5 3 -10 1 -10 -5 0 -6 -5 -8 -11 -4 -8 5 -8 9 1 14 7 4 10 13 6 19 -5 7
-1 9 8 5 9 -3 14 -10 11 -15 -7 -10 32 -32 44 -25 5 3 8 -7 7 -23 0 -21 -5
-27 -15 -23 -11 4 -12 7 -3 10 10 3 10 7 1 18 -15 18 -25 18 -33 -2 -6 -15 -4
-15 11 -3 15 12 16 12 10 -3 -4 -11 2 -24 18 -36 13 -11 21 -22 17 -26 -3 -4
1 -4 10 -1 17 7 18 21 5 43 -5 8 -2 12 8 12 9 0 13 -4 10 -10 -3 -5 -1 -10 4
-10 6 0 11 5 11 11 0 5 5 7 10 4 6 -4 4 -12 -5 -22 -12 -12 -13 -18 -4 -29 7
-8 9 -17 5 -21 -3 -3 -6 -1 -6 6 0 7 -5 9 -12 5 -7 -5 -8 -3 -3 6 6 9 4 11 -5
5 -10 -6 -9 -11 5 -22 11 -7 23 -13 29 -13 5 0 7 -3 4 -6 -3 -3 5 -17 18 -31
26 -28 22 -53 -4 -30 -10 8 -23 12 -30 10 -8 -3 -10 1 -6 11 3 9 2 16 -3 16
-5 0 -36 20 -69 45 -32 24 -66 45 -74 45 -13 0 -13 -1 0 -10 11 -7 11 -10 2
-10 -7 0 -11 -4 -8 -8 3 -5 -1 -9 -9 -9 -8 0 -12 4 -9 9 3 4 0 8 -5 8 -6 0
-11 5 -11 11 0 5 5 7 10 4 9 -6 12 1 9 23 0 4 -15 16 -32 27 -17 11 -28 14
-23 7 4 -6 2 -12 -3 -12 -6 0 -11 5 -11 10 0 22 -3 26 -33 45 -18 11 -33 19
-34 18 -1 -1 -16 11 -34 28 -24 23 -35 27 -45 18 -7 -6 -13 -14 -12 -17 1 -4
-3 -17 -10 -29 -7 -13 -10 -23 -6 -23 3 0 2 -6 -3 -12 -6 -7 -11 -20 -11 -28
0 -8 -3 -26 -7 -40 -14 -58 -13 -90 2 -90 13 0 13 2 2 18 -12 15 -12 16 2 5 9
-7 18 -12 20 -10 3 1 -3 -5 -13 -14 -16 -15 -16 -18 -2 -23 8 -3 24 -1 35 4
10 6 19 7 19 3 0 -4 5 -1 11 7 9 13 10 13 6 -1 -3 -9 0 -23 6 -30 7 -7 2 -5
-11 6 -20 16 -22 17 -16 2 6 -16 17 -21 37 -18 5 1 20 -8 34 -19 14 -11 29
-18 32 -14 3 3 -5 14 -18 25 -26 21 -21 25 10 8 15 -8 24 -7 35 2 13 10 17 10
23 0 5 -7 11 -12 15 -12 7 1 6 -10 -2 -25 -4 -7 -15 -8 -27 -3 -17 6 -17 8 -2
8 17 1 23 16 9 25 -4 2 -14 -4 -20 -15 -11 -17 -9 -21 10 -28 13 -5 26 -7 31
-4 4 2 7 0 7 -5 0 -5 12 -14 26 -20 20 -10 24 -10 18 0 -6 10 -4 11 7 1 7 -7
17 -13 22 -13 4 0 5 6 1 13 -4 6 5 0 21 -15 28 -28 52 -38 39 -17 -4 8 1 9 17
4 28 -9 24 -3 -10 15 -15 8 -21 8 -17 1 4 -6 3 -11 -2 -11 -6 0 -12 7 -16 15
-6 17 7 19 35 5 14 -8 19 -7 19 2 0 6 7 3 16 -8 8 -10 12 -13 8 -5 -5 11 -2
13 14 9 15 -4 25 0 32 10 7 12 9 13 10 3 0 -11 3 -11 16 0 20 16 54 22 54 10
0 -16 41 -8 50 10 5 9 8 26 5 37 -4 20 16 25 32 7 4 -4 3 -5 -4 -1 -6 3 -14 2
-17 -3 -7 -11 13 -9 32 2 7 5 9 13 6 19 -5 7 -2 8 5 4 8 -5 14 0 18 13 3 11
10 18 16 14 5 -3 7 -1 4 4 -4 6 2 13 13 16 11 3 19 11 18 19 -2 7 3 12 10 10
8 -1 16 7 19 18 3 11 10 17 16 13 6 -3 7 -1 3 5 -4 7 -1 12 7 12 14 0 49 34
61 60 5 9 2 8 -7 -2 -17 -22 -28 -23 -21 -3 7 18 8 18 -32 6 -29 -8 -31 -7
-26 16 4 21 6 23 14 10 8 -16 52 -17 66 -2 4 4 1 5 -5 1 -7 -4 -13 -2 -13 3 0
6 -3 10 -7 10 -5 -1 -11 0 -15 1 -19 6 -31 8 -69 9 -34 1 -40 4 -35 18 7 16
-27 57 -38 46 -3 -3 -17 2 -32 11 -14 10 -28 15 -31 12 -4 -3 -12 -1 -19 5
-10 8 -20 4 -40 -18 -16 -16 -25 -21 -21 -11 3 10 2 20 -3 23 -10 6 -9 33 2
51 4 6 -6 21 -22 33 -17 12 -30 17 -30 12 0 -6 -6 -8 -14 -5 -8 3 -12 12 -10
19 3 7 1 16 -5 20 -7 3 -8 0 -5 -9 3 -9 1 -16 -5 -16 -6 0 -11 4 -11 10 0 5
-8 7 -17 3 -16 -5 -16 -4 1 9 17 14 17 15 -8 31 -14 9 -29 17 -35 17 -5 0 -11
7 -15 15 -6 16 -18 19 -30 8z"/>
<path d="M2901 1758 c-57 -29 -82 -64 -88 -120 -11 -93 59 -168 156 -168 56 0
111 22 111 45 0 24 -20 27 -57 10 -65 -31 -131 -5 -159 62 -14 32 -12 47 9 91
23 47 104 67 156 38 47 -26 72 10 28 39 -43 28 -107 29 -156 3z"/>
<path d="M3300 1763 c-44 -23 -60 -64 -39 -101 11 -20 33 -33 88 -52 86 -29
105 -48 77 -79 -23 -25 -88 -28 -126 -6 -33 19 -60 19 -60 0 0 -22 73 -55 122
-55 85 0 142 67 105 124 -16 23 -37 34 -116 58 -59 17 -74 43 -42 69 28 23 56
24 95 4 36 -19 56 -19 56 0 0 42 -104 67 -160 38z"/>
<path d="M3713 1760 c-102 -52 -110 -203 -14 -267 67 -45 170 -22 205 46 28
54 29 102 4 150 -43 84 -117 110 -195 71z m118 -40 c27 -15 49 -62 49 -106 0
-28 -8 -44 -34 -70 -62 -62 -140 -36 -169 58 -9 28 12 86 40 108 28 22 82 26
114 10z"/>
<path d="M2097 1763 c-4 -3 -7 -71 -7 -150 0 -135 1 -143 20 -143 16 0 19 8
22 58 l3 57 54 5 c64 7 91 33 91 89 -1 63 -38 91 -123 91 -29 0 -57 -3 -60 -7z"/>
<path d="M2324 1757 c-2 -7 -3 -74 -2 -148 3 -126 4 -134 23 -134 17 0 20 8
23 59 l3 58 37 -6 c42 -6 62 -28 62 -67 0 -31 23 -54 45 -45 17 6 21 36 5 36
-5 0 -10 12 -10 28 0 15 -7 37 -15 49 -13 18 -13 22 0 33 15 13 20 75 9 105
-4 8 -19 22 -35 30 -36 19 -138 20 -145 2z"/>
<path d="M2585 1757 c-3 -7 -4 -74 -3 -148 l3 -134 93 -3 c85 -3 93 -1 90 15
-3 15 -15 19 -71 21 l-67 3 0 44 0 45 60 0 c53 0 60 2 60 20 0 18 -7 20 -60
20 l-60 0 0 45 0 45 71 0 c62 0 70 2 67 18 -3 14 -17 17 -91 20 -66 2 -89 -1
-92 -11z"/>
<path d="M4007 1763 c-4 -3 -7 -71 -7 -150 0 -135 1 -143 20 -143 18 0 20 8
22 102 l3 102 74 -102 c100 -140 105 -138 109 46 2 137 2 142 -18 142 -19 0
-20 -6 -20 -95 0 -52 -4 -95 -8 -95 -4 0 -41 45 -81 100 -70 97 -80 107 -94
93z"/>
<path d="M1563 1464 c-76 -80 -140 -150 -142 -155 -1 -6 5 -19 15 -30 18 -20
17 -21 -27 -63 -25 -24 -49 -51 -52 -60 -4 -10 -16 -20 -27 -23 -11 -3 -20
-12 -20 -19 0 -22 -28 -28 -56 -13 -23 12 -27 11 -47 -14 l-22 -28 -38 32 -38
31 22 24 c36 39 13 50 -126 62 -66 6 -122 9 -124 6 -10 -9 75 -96 129 -132
260 -174 593 -107 762 152 53 81 78 169 78 269 l0 81 -33 -32 c-32 -31 -34
-32 -50 -14 -9 10 -17 24 -17 30 0 12 -28 42 -40 42 -4 0 -70 -66 -147 -146z"/>
</g>
</svg>
